<?xml version="1.0" standalone="no"?>
<!DOCTYPE svg PUBLIC "-//W3C//DTD SVG 20010904//EN"
 "http://www.w3.org/TR/2001/REC-SVG-20010904/DTD/svg10.dtd">
<svg version="1.0" xmlns="http://www.w3.org/2000/svg"
 width="300.000000pt" height="274.000000pt" viewBox="0 0 300.000000 274.000000"
 preserveAspectRatio="xMidYMid meet">
<metadata>
Created by potrace 1.10, written by Peter Selinger 2001-2011
</metadata>
<g transform="translate(0.000000,274.000000) scale(0.100000,-0.100000)"
fill="#000000" stroke="none">
<path d="M1417 2714 c-2 -3 -35 -7 -73 -9 -74 -5 -214 -37 -272 -63 -20 -9
-39 -16 -42 -17 -3 -1 -17 -5 -32 -9 -16 -5 -28 -13 -28 -19 0 -6 -3 -8 -6 -4
-8 8 -113 -45 -189 -96 -373 -250 -605 -686 -605 -1141 0 -419 200 -829 529
-1080 227 -173 520 -256 861 -243 235 9 360 38 538 125 100 48 223 134 311
216 173 164 331 460 388 729 21 100 23 361 4 482 -79 490 -409 890 -871 1055
-104 38 -169 50 -350 69 -101 11 -155 12 -163 5z m294 -55 c7 -11 9 -11 9 1 0
9 3 11 8 5 4 -6 23 -12 42 -14 51 -4 183 -48 268 -87 40 -19 75 -34 78 -34 10
0 133 -87 184 -130 115 -97 230 -223 230 -250 0 -7 3 -10 7 -7 16 17 113 -165
147 -276 34 -111 59 -285 64 -442 5 -157 -17 -314 -59 -428 -16 -43 -29 -88
-29 -100 0 -37 -20 -98 -30 -92 -6 4 -7 -1 -3 -11 4 -12 3 -15 -5 -10 -7 4
-12 1 -12 -7 0 -29 -72 -107 -120 -132 -57 -29 -154 -36 -144 -11 3 8 -3 17
-14 20 -11 4 -39 30 -63 58 -42 50 -43 53 -43 124 -1 67 1 75 28 103 17 17 35
31 43 31 7 0 28 14 46 30 35 30 70 43 49 18 -8 -10 -2 -13 25 -15 32 -2 34 -1
17 12 -17 13 -17 14 -2 15 23 0 99 -35 128 -60 17 -15 19 -20 8 -16 -20 6 -21
1 -8 -29 5 -11 9 -14 9 -7 1 6 8 12 16 12 25 0 17 21 -24 61 -64 60 -184 74
-258 29 -67 -41 -118 -161 -94 -223 6 -16 8 -39 5 -52 -5 -19 -3 -23 13 -19
14 4 23 -4 36 -31 9 -19 24 -38 32 -41 8 -4 12 -10 9 -15 -8 -14 -44 9 -44 29
0 25 -14 42 -38 47 -21 4 -21 3 4 -35 14 -21 41 -46 60 -55 33 -16 40 -25 28
-38 -8 -8 -97 69 -106 91 -5 12 -7 9 -7 -12 -1 -30 -58 -146 -72 -146 -15 0
-4 35 19 65 12 15 25 38 27 49 25 108 25 112 4 167 -18 47 -66 115 -76 106 -1
-2 10 -30 26 -63 37 -78 45 -103 42 -139 -3 -43 -21 -97 -38 -117 -8 -9 -15
-23 -17 -31 -2 -17 -31 -47 -44 -47 -6 0 -12 7 -16 15 -4 12 -11 11 -39 -8
-34 -22 -39 -37 -13 -37 8 0 16 10 19 22 5 18 8 19 22 8 37 -31 -68 -74 -162
-67 -177 14 -332 237 -308 443 15 131 10 174 -26 249 -32 67 -36 90 -39 210 0
11 -3 15 -9 10 -5 -6 -11 -39 -13 -75 -3 -49 -12 -81 -36 -128 -39 -75 -55
-171 -36 -217 15 -36 3 -159 -22 -238 -32 -98 -113 -193 -199 -233 -62 -30
-95 -31 -102 -4 -3 12 -15 21 -29 22 -13 0 -29 1 -36 2 -6 1 -13 -4 -15 -10
-2 -7 9 -10 32 -8 26 2 35 -2 35 -13 0 -21 -76 -11 -121 16 -31 19 -49 20 -49
2 0 -9 55 -32 128 -53 44 -14 52 -14 52 -2 0 18 14 18 30 -1 16 -20 30 -19 30
1 0 13 7 15 30 10 21 -4 30 -2 30 8 0 7 11 18 25 24 14 6 25 15 25 19 0 5 14
9 31 10 20 2 29 -2 26 -10 -2 -7 -17 -11 -32 -10 -26 2 -26 1 -11 -16 16 -17
13 -19 -63 -45 -94 -31 -127 -32 -198 -7 -38 13 -50 14 -42 4 9 -10 8 -13 -4
-13 -8 0 -22 -3 -31 -6 -10 -4 -16 -1 -16 10 0 9 -6 13 -15 10 -15 -6 -142 76
-227 149 -21 17 -21 17 -1 17 11 0 37 7 57 15 26 11 36 21 36 38 0 18 2 19 10
7 9 -13 10 -13 10 0 0 8 -4 21 -9 29 -7 11 -10 9 -16 -8 -10 -32 -70 -74 -95
-66 -27 8 -27 39 0 32 23 -6 70 27 70 49 0 8 7 17 15 20 16 7 21 34 6 34 -5 0
-19 -12 -30 -27 -11 -16 -21 -23 -21 -16 0 7 11 24 23 39 25 29 47 26 47 -5 0
-30 70 -161 86 -161 11 0 8 12 -13 48 -53 90 -30 226 55 316 l37 39 -32 -22
c-59 -40 -102 -100 -109 -152 -6 -41 -8 -46 -20 -34 -11 11 -12 24 -5 54 19
86 -28 188 -104 226 -45 22 -148 25 -186 5 -17 -10 -23 -9 -30 1 -7 11 -9 10
-9 -3 0 -10 -4 -18 -10 -18 -5 0 -10 -8 -10 -19 0 -11 -6 -18 -16 -17 -9 0
-19 -5 -21 -12 -3 -8 2 -10 14 -6 17 5 17 5 1 -9 -10 -8 -15 -17 -11 -20 12
-12 18 -7 32 23 13 31 60 61 114 74 28 7 109 -23 122 -45 4 -6 13 -8 20 -5 19
7 71 -55 80 -93 16 -76 -40 -194 -106 -221 -16 -7 -26 -17 -23 -25 7 -18 -29
-28 -69 -20 -75 17 -145 73 -185 149 -21 41 -26 65 -27 122 0 63 3 75 29 108
37 49 85 79 103 64 8 -6 17 -8 20 -4 4 4 2 11 -5 15 -23 14 213 114 281 119
31 3 57 6 57 7 0 1 -11 22 -24 46 -13 24 -36 81 -52 127 -45 133 -118 201
-202 186 l-37 -6 31 30 c41 42 73 48 106 23 14 -12 33 -19 41 -15 24 9 79 -47
108 -111 19 -43 28 -80 30 -126 1 -35 9 -76 17 -91 22 -37 122 -77 122 -48 0
6 8 10 17 10 23 0 149 38 199 60 82 37 154 122 154 185 0 16 6 25 16 25 14 0
15 -7 10 -42 -13 -81 -78 -159 -200 -241 -48 -32 -139 -55 -158 -39 -21 16
-128 14 -128 -3 0 -8 5 -17 10 -20 6 -3 10 -1 10 5 0 8 9 10 23 7 12 -4 29 -2
37 3 25 15 31 -1 8 -21 -17 -15 -18 -18 -4 -11 10 5 28 7 39 4 14 -3 18 -1 13
6 -7 11 24 16 97 15 9 0 17 4 17 8 0 4 8 5 18 3 9 -3 26 2 37 11 20 16 20 16
-2 6 -33 -17 -42 -12 -10 5 15 8 32 12 37 9 5 -3 12 0 16 6 4 8 3 9 -4 5 -7
-4 11 16 38 44 79 81 102 116 121 185 10 35 29 79 43 97 13 18 29 45 35 61 13
34 39 35 52 1 5 -15 23 -44 40 -65 16 -21 38 -62 48 -92 25 -71 37 -93 77
-143 18 -23 30 -45 26 -49 -4 -3 0 -5 8 -3 8 2 14 -2 13 -9 -3 -15 54 -59 87
-67 17 -4 14 -1 -9 10 -18 8 -31 17 -29 20 3 2 24 -4 47 -15 26 -11 38 -21 29
-24 -7 -3 2 -3 21 0 27 5 32 3 26 -7 -5 -9 -4 -11 3 -6 6 4 29 2 51 -4 30 -8
45 -7 67 5 19 10 32 11 40 4 8 -7 15 -6 19 2 4 6 1 15 -6 20 -20 13 -97 11
-105 -2 -10 -16 -66 -4 -130 28 -77 38 -195 163 -217 228 -21 61 -21 65 1 65
10 0 23 5 29 11 9 9 17 -7 34 -62 13 -41 22 -77 21 -81 -3 -11 65 -66 109 -89
23 -11 38 -16 34 -10 -3 6 -2 11 4 11 5 0 13 -4 16 -10 3 -5 32 -17 63 -26 31
-9 61 -20 66 -25 18 -16 92 -10 109 9 9 9 25 60 37 112 26 117 64 203 103 236
25 21 39 25 74 22 43 -3 43 -3 21 14 -55 42 -122 0 -174 -109 -14 -28 -33 -95
-43 -147 -10 -53 -21 -99 -24 -102 -3 -3 -22 -9 -41 -14 -36 -8 -66 6 -66 31
0 5 -9 9 -21 9 -11 0 -17 5 -14 10 4 7 12 7 25 0 25 -13 41 -6 67 33 63 92
148 450 113 472 -19 12 14 162 46 209 22 32 67 56 104 56 47 0 167 -73 193
-118 22 -37 26 -124 8 -146 -8 -9 -8 -22 -2 -38 6 -16 5 -33 -4 -53 l-13 -30
-10 25 c-7 19 -6 29 4 41 21 23 17 35 -5 15 -28 -25 -90 -31 -134 -12 -35 14
-39 14 -57 -4 -10 -10 -15 -22 -12 -26 4 -4 2 -4 -5 0 -7 4 -9 14 -6 23 5 12
3 14 -7 8 -9 -5 -11 -4 -6 3 4 7 2 12 -3 12 -6 0 -11 15 -11 33 0 21 -3 28 -9
19 -7 -11 -10 -10 -15 3 -11 30 -6 65 19 127 24 58 24 60 4 42 -47 -42 -91
-184 -58 -184 8 0 25 -23 38 -50 13 -28 38 -62 55 -76 17 -13 36 -29 43 -34 6
-5 32 -14 57 -21 25 -6 43 -15 40 -20 -3 -5 1 -9 9 -9 8 0 20 -7 27 -15 7 -8
17 -15 23 -15 5 0 2 9 -8 20 -19 21 -14 50 8 50 28 0 57 47 68 108 11 63 34
97 48 73 4 -7 21 -74 37 -149 38 -179 40 -362 5 -457 -29 -80 -54 -134 -63
-135 -19 0 -159 71 -154 79 3 5 18 12 33 16 50 12 93 46 121 95 26 45 27 54
21 124 -5 70 -9 80 -46 124 -26 31 -48 47 -64 48 -13 0 -34 4 -46 8 -34 11
-95 -10 -132 -46 -40 -39 -135 -232 -128 -259 3 -12 -3 -25 -15 -33 -18 -13
-15 -14 34 -21 29 -4 92 -25 140 -46 122 -55 135 -63 131 -76 -5 -14 14 -26
22 -14 3 6 13 7 21 4 13 -5 13 -8 2 -15 -9 -6 -6 -7 8 -3 16 4 28 -2 48 -26
43 -51 59 -91 59 -144 l0 -50 9 40 c12 54 3 93 -33 138 -38 48 -30 61 10 18
l30 -32 7 28 c4 15 10 33 15 38 7 10 23 77 49 211 13 65 9 172 -9 289 -16 106
-43 215 -52 215 -5 0 -6 7 -3 15 4 8 1 15 -6 15 -6 0 -9 4 -5 9 9 15 -26 92
-38 84 -6 -4 -8 0 -4 11 8 20 -23 87 -36 79 -6 -3 -7 -1 -3 5 8 14 -28 74 -39
64 -5 -4 -5 -2 -2 4 9 16 -68 120 -144 194 -69 68 -178 153 -196 153 -7 0 -14
6 -17 14 -3 7 -15 13 -26 13 -11 0 -20 5 -20 11 0 5 -4 7 -10 4 -5 -3 -10 -2
-10 4 0 6 -10 15 -21 22 -16 8 -20 8 -14 -1 7 -11 -44 7 -82 29 -29 17 -5 13
28 -5 17 -8 33 -13 35 -11 8 8 -205 94 -291 118 -107 30 -369 33 -485 6 -90
-21 -262 -86 -256 -96 7 -11 -123 -73 -136 -65 -7 5 -8 2 -3 -6 6 -10 4 -12
-9 -7 -9 4 -15 3 -12 -1 2 -4 -29 -28 -70 -52 -80 -47 -281 -241 -269 -260 4
-6 1 -9 -7 -8 -7 2 -12 -5 -12 -14 1 -10 -3 -16 -8 -15 -20 4 -161 -286 -161
-330 0 -7 -4 -13 -8 -13 -4 0 -7 -8 -7 -17 0 -10 -6 -54 -15 -98 -8 -44 -18
-114 -22 -155 -7 -84 9 -299 25 -329 9 -17 14 -46 19 -99 0 -7 5 -11 10 -8 5
4 7 -3 4 -14 -7 -26 9 -26 32 0 16 18 17 20 1 20 -9 0 -20 10 -25 23 -19 49
-31 94 -31 113 1 17 2 17 13 -4 7 -12 16 -19 21 -15 4 4 4 0 1 -9 -3 -8 1 -23
10 -32 9 -9 14 -20 11 -25 -9 -14 5 -42 17 -34 6 4 7 1 2 -7 -6 -10 -4 -12 9
-7 11 4 7 -6 -13 -31 -16 -20 -33 -49 -36 -65 -10 -39 -20 -33 -33 21 -6 26
-25 96 -41 156 -16 59 -27 114 -24 122 3 8 -3 17 -12 20 -9 4 -12 10 -7 13 5
3 11 75 14 158 2 84 1 147 -4 140 -5 -7 -8 0 -8 18 0 57 49 222 98 326 53 112
145 262 156 252 3 -3 6 1 6 10 0 8 3 17 8 19 4 2 25 25 46 52 140 174 419 343
646 392 41 9 89 20 105 25 17 4 115 6 219 5 144 -3 191 -7 197 -17z m-22 -64
c39 -8 87 -22 107 -30 20 -8 40 -13 44 -10 10 6 122 -36 116 -43 -3 -3 -28 5
-55 17 -64 27 -79 26 -21 -2 25 -12 46 -24 46 -27 1 -12 60 -89 67 -90 5 0 6
4 2 9 -3 5 0 13 6 17 7 4 9 3 6 -4 -5 -6 0 -8 13 -5 12 3 28 -1 38 -9 9 -8 40
-27 67 -43 65 -36 173 -123 248 -199 111 -112 179 -252 81 -166 -84 73 -191
95 -239 50 -43 -40 -56 -76 -63 -169 l-7 -86 -24 79 -24 79 21 92 c27 115 19
176 -34 270 -46 83 -62 100 -80 84 -11 -9 -7 -16 19 -40 17 -16 26 -29 19 -29
-6 0 -12 -5 -12 -10 0 -6 8 -10 18 -8 11 2 17 -3 16 -14 -1 -10 4 -18 11 -18
17 0 27 -28 12 -33 -8 -2 -7 -10 4 -28 9 -13 19 -36 23 -51 5 -22 3 -26 -9
-22 -18 7 -20 -17 -3 -34 9 -9 8 -12 -4 -12 -9 0 -18 3 -21 8 -2 4 -2 2 -1 -5
4 -18 -35 -63 -56 -63 -36 0 -42 23 -27 97 17 82 7 185 -24 250 -11 23 -44 64
-74 91 -61 56 -166 97 -275 106 l-65 6 74 -14 c214 -41 328 -135 352 -290 9
-54 8 -81 -5 -139 -18 -81 -94 -253 -149 -340 -44 -69 -75 -157 -83 -235 -4
-46 -1 -63 15 -89 26 -42 65 -66 91 -58 21 7 28 25 9 25 -6 0 -8 11 -5 28 4
15 9 40 12 56 7 39 10 43 43 61 26 13 30 13 46 -5 11 -13 14 -20 6 -20 -7 0
-10 -4 -6 -10 9 -14 -32 -50 -50 -44 -16 7 -18 -1 -7 -29 7 -16 11 -14 39 13
66 65 95 228 54 303 -15 27 -15 30 6 47 19 15 20 20 8 30 -8 6 -18 9 -24 6
-14 -9 -1 32 15 45 11 9 14 8 14 -2 0 -10 3 -10 12 -1 7 7 19 12 28 11 10 0
11 -2 2 -6 -6 -2 -10 -9 -6 -14 3 -5 -1 -10 -8 -10 -7 -1 1 -4 17 -8 26 -5 32
-14 48 -64 10 -31 23 -55 28 -52 5 4 9 -4 9 -17 0 -18 -2 -20 -10 -8 -7 10 -9
-2 -7 -40 3 -53 -19 -157 -44 -214 l-12 -26 -24 26 c-13 14 -21 30 -18 35 4 5
3 9 -2 9 -4 0 -16 -19 -25 -43 -10 -23 -29 -54 -43 -69 -14 -15 -25 -31 -25
-35 0 -15 -55 -42 -99 -49 -52 -8 -79 13 -111 89 -20 45 -21 60 -14 122 13
105 7 275 -11 337 -22 77 -93 141 -178 162 -68 16 -173 -50 -208 -132 -29 -67
-44 -217 -30 -308 6 -41 11 -95 11 -120 0 -53 -30 -117 -66 -140 -24 -16 -29
-16 -79 0 -46 14 -60 25 -100 78 -25 34 -51 81 -58 106 -8 30 -19 47 -34 53
-28 11 -30 23 -3 16 28 -7 26 20 -2 51 l-23 25 23 -12 c19 -10 22 -9 22 5 0
10 -5 32 -12 50 -9 26 -9 41 2 74 17 51 24 56 50 32 l21 -20 -20 -33 c-40 -66
-23 -196 36 -282 32 -46 64 -67 56 -37 -3 11 -13 20 -22 21 -9 1 -5 4 8 8 14
4 27 13 29 21 3 12 2 12 -8 3 -22 -20 -84 16 -73 43 3 8 0 14 -6 14 -6 0 -11
4 -11 9 0 11 43 23 50 13 3 -4 14 -12 25 -18 24 -13 55 -126 37 -132 -7 -2
-12 -8 -12 -14 0 -6 7 -7 15 -4 46 19 50 19 30 3 -28 -23 -7 -21 31 2 78 48
65 212 -30 369 -55 91 -104 196 -132 279 -22 66 -26 91 -22 158 9 168 91 260
283 316 49 14 55 18 30 20 l-30 2 35 7 c65 14 286 11 359 -5z m-455 -25 c-77
-25 -119 -53 -163 -110 -18 -25 -37 -44 -40 -43 -4 1 -7 -6 -8 -15 -1 -9 -9
-42 -18 -72 -12 -41 -15 -75 -10 -130 11 -131 11 -132 -7 -144 -21 -13 -47 0
-63 30 -6 12 -18 18 -30 16 -19 -4 -19 -3 3 17 23 23 31 81 11 81 -7 0 -9 -10
-5 -25 5 -18 2 -25 -9 -25 -19 0 -19 27 1 65 10 19 11 31 5 33 -18 6 -12 19
12 26 16 4 19 8 9 14 -10 7 -10 11 3 22 13 11 15 9 15 -13 0 -14 -5 -38 -12
-52 -9 -19 -9 -28 0 -37 9 -9 12 -6 12 15 0 17 5 27 15 27 8 0 15 5 15 10 0 6
-5 10 -11 10 -7 0 -9 11 -6 30 4 16 2 32 -3 35 -17 10 17 36 37 29 16 -6 16
-5 -2 10 -20 17 -20 17 3 13 14 -3 22 -1 20 6 -1 7 2 23 6 36 6 17 10 20 16
11 6 -9 11 -7 19 8 9 17 8 19 -8 15 -11 -3 -30 -16 -43 -31 -12 -14 -17 -22
-9 -17 10 6 12 4 6 -4 -5 -9 -10 -10 -18 -2 -8 8 -22 -7 -51 -52 -64 -101 -81
-201 -51 -301 19 -62 19 -102 0 -156 -8 -23 -12 -54 -8 -68 5 -23 8 -20 26 29
22 59 37 76 50 54 12 -23 37 -18 37 7 0 14 3 19 10 12 6 -6 -3 -35 -28 -84
-30 -60 -37 -86 -40 -144 -4 -73 15 -153 35 -149 11 2 11 -22 -1 -50 -13 -27
25 -111 52 -115 12 -2 22 -7 22 -11 0 -5 10 -9 23 -9 33 0 114 -39 121 -59 6
-15 -8 -33 -28 -33 -5 0 -30 15 -56 34 -41 29 -49 32 -65 20 -24 -18 -41 -18
-26 0 14 16 -2 32 -38 38 -27 3 -42 28 -18 28 9 0 18 -6 21 -12 3 -7 2 1 -1
17 -3 17 -24 71 -46 120 -34 77 -40 100 -40 160 0 50 -2 61 -7 40 -7 -26 -8
-24 -10 20 -2 28 -2 58 -1 69 0 10 -3 24 -9 31 -5 6 -9 41 -8 77 2 58 -1 70
-26 102 -42 56 -68 69 -118 61 -48 -8 -107 -36 -156 -73 -18 -14 -35 -22 -38
-19 -3 3 7 30 23 59 42 79 191 223 311 302 56 37 100 71 98 75 -12 18 285 161
334 160 15 0 0 -8 -36 -19z m788 -110 c77 -42 85 -50 23 -25 -27 12 -40 13
-50 5 -12 -10 -25 3 -21 22 0 4 -8 14 -19 22 -35 27 -8 17 67 -24z m-1269
-430 c46 -37 69 -119 72 -265 3 -139 17 -203 77 -358 21 -55 42 -91 70 -118
37 -36 38 -38 19 -48 -27 -15 -73 -14 -95 2 -11 8 -20 36 -27 82 -22 160 -88
276 -165 291 -40 7 -43 17 -9 32 31 14 82 83 90 123 4 17 13 33 20 35 17 7 4
70 -26 124 -34 62 -51 64 -33 4 16 -54 18 -122 5 -157 -14 -36 -58 -80 -72
-72 -7 5 -3 14 13 29 14 11 28 33 31 48 6 23 4 25 -15 20 -14 -3 -19 -2 -14 6
4 7 14 12 23 12 12 0 14 7 8 37 -24 129 -126 172 -213 90 -48 -45 -49 -139 -2
-182 29 -26 97 -31 136 -10 19 10 34 22 34 26 0 5 7 6 15 3 18 -7 1 -28 -34
-39 -17 -5 -20 -9 -11 -15 15 -9 5 -30 -15 -30 -9 0 -12 6 -8 15 4 13 -1 15
-34 9 -107 -17 -167 94 -110 206 18 38 33 51 95 83 85 43 136 48 175 17z m53
-31 c8 -16 14 -34 13 -41 0 -7 -5 -2 -10 11 -5 13 -19 37 -31 55 -17 23 -18
27 -4 17 9 -8 24 -27 32 -42z m163 35 c3 -2 -1 -10 -7 -16 -14 -14 -43 -1 -50
22 -4 10 3 11 24 6 16 -4 31 -10 33 -12z m69 -12 c3 -16 -2 -22 -17 -22 -26 0
-36 17 -20 36 16 19 33 13 37 -14z m518 12 c77 -37 134 -134 134 -228 0 -31
-4 -36 -27 -42 -68 -15 -98 -29 -135 -62 l-39 -35 -37 36 c-25 25 -54 41 -92
50 l-55 14 4 59 c4 69 18 107 56 152 55 66 127 86 191 56z m442 -12 c3 -16 -2
-22 -17 -22 -26 0 -36 17 -20 36 16 19 33 13 37 -14z m70 11 c-4 -22 -38 -30
-38 -10 0 14 13 24 33 26 5 1 7 -7 5 -16z m-1033 -53 c14 12 18 11 26 -1 8
-14 13 -36 10 -52 -1 -4 9 -22 22 -40 54 -72 30 -61 -28 14 -28 36 -99 79
-130 79 -14 0 -25 5 -25 11 0 6 9 9 20 6 11 -3 22 -1 26 4 3 5 18 -1 34 -13
25 -18 32 -19 45 -8z m1049 15 c-4 -8 -18 -15 -34 -15 -41 0 -121 -61 -126
-97 -1 -7 -23 -33 -48 -58 l-45 -46 43 71 c24 39 47 86 50 105 7 37 12 40 36
25 10 -6 22 -5 36 5 11 7 34 15 50 18 16 2 32 5 36 6 4 0 5 -6 2 -14z m-1622
-52 c-16 -32 -42 -92 -58 -133 -17 -43 -30 -67 -32 -56 -4 20 50 163 80 214
33 54 40 36 10 -25z m2109 -27 c40 -85 36 -117 -5 -36 -41 80 -53 116 -36 105
7 -4 25 -35 41 -69z m-1936 28 c21 -9 45 -56 45 -92 0 -64 -81 -116 -141 -92
-37 16 -49 37 -49 87 0 54 23 83 65 83 19 0 37 5 40 10 7 12 17 12 40 4z
m1347 -157 c14 -34 18 -160 6 -173 -4 -4 -16 3 -26 16 l-18 22 -41 -21 c-37
-18 -44 -28 -63 -88 -13 -38 -24 -70 -26 -72 -2 -2 -13 4 -24 14 -41 37 -35
128 14 194 48 64 137 150 151 145 7 -3 19 -20 27 -37z m-861 -33 c99 -102 129
-179 97 -249 -23 -50 -54 -20 -82 80 -8 26 -59 57 -100 59 l-31 2 1 66 c2 69
16 108 38 108 8 0 43 -30 77 -66z m267 -43 c12 -6 33 -27 48 -46 32 -43 27
-74 -21 -122 -36 -36 -52 -40 -81 -19 -15 12 -16 17 -7 27 14 14 63 19 63 7 0
-4 -7 -8 -15 -8 -8 0 -15 -8 -15 -17 0 -34 41 22 47 63 4 30 0 45 -16 65 -25
32 -70 46 -82 27 -6 -9 -9 -5 -9 13 0 14 3 28 6 31 6 7 52 -5 82 -21z m298 -8
c-3 -4 -18 -8 -33 -9 -53 -6 -84 -66 -67 -130 6 -23 41 -44 62 -37 21 8 13 19
-15 18 -37 0 -40 22 -3 27 17 3 30 0 31 -6 1 -6 7 9 15 34 l13 45 -5 -45 c-8
-57 -18 -77 -45 -85 -29 -9 -59 9 -86 50 -30 45 -29 69 2 110 25 31 56 50 100
57 20 4 42 -18 31 -29z m-1242 -3 c6 -31 31 -61 76 -92 l25 -17 -25 -22 c-116
-98 -120 -105 -144 -211 -4 -19 -13 -28 -26 -28 -12 0 -20 -7 -20 -17 0 -19
28 -53 45 -53 6 0 24 -14 41 -31 16 -17 53 -45 82 -61 28 -16 52 -34 52 -39 0
-7 -122 -69 -136 -69 -1 0 -10 21 -19 48 -41 114 -60 157 -78 175 -15 15 -17
21 -6 28 14 8 27 110 28 214 1 51 18 141 36 193 2 6 17 12 33 12 25 0 30 -5
36 -30z m1912 16 c15 -12 16 -17 7 -27 -10 -10 -17 -9 -33 6 -32 29 -10 47 26
21z m-1749 -20 c-8 -21 15 -26 36 -8 18 16 34 11 23 -7 -6 -8 -111 -61 -123
-61 -2 0 -2 4 1 9 3 5 -6 12 -20 15 -15 4 -24 10 -20 13 9 10 -15 34 -27 26
-6 -4 -7 -1 -2 6 5 9 10 10 18 2 6 -6 23 -11 38 -11 15 0 31 -5 34 -10 4 -6
11 -8 16 -4 6 4 6 10 0 18 -12 15 -5 26 17 26 8 0 12 -6 9 -14z m1779 -74 c-7
-6 -40 15 -66 43 -23 25 -21 25 22 -6 26 -18 46 -34 44 -37z m-1012 43 c11 -8
16 -21 12 -30 -5 -14 -8 -14 -36 0 -33 17 -41 45 -12 45 9 0 25 -7 36 -15z
m296 0 c0 -22 -48 -51 -62 -37 -15 15 -1 45 17 38 8 -3 15 -1 15 4 0 6 7 10
15 10 8 0 15 -7 15 -15z m783 6 c20 -1 22 -16 6 -34 -9 -10 -21 -8 -55 8 -54
25 -56 35 -6 30 20 -2 45 -4 55 -4z m-1124 -41 c6 0 8 -6 5 -14 -4 -10 0 -13
13 -10 12 3 25 -2 33 -13 8 -10 10 -15 6 -11 -5 4 -15 3 -23 -3 -7 -6 -13 -8
-13 -4 0 4 -7 2 -15 -5 -20 -17 -22 -14 -29 50 -4 40 -3 49 4 33 5 -13 14 -23
19 -23z m331 -35 c-6 -8 -24 -13 -40 -12 -30 2 -31 17 -1 17 10 0 25 7 32 16
9 11 15 12 17 5 2 -7 -1 -18 -8 -26z m-1050 -65 c0 -5 9 -7 20 -5 13 2 24 -4
31 -17 10 -19 9 -20 -7 -13 -11 5 -42 10 -69 13 -41 3 -56 -1 -79 -19 -41 -32
-58 -79 -50 -139 6 -48 6 -49 -17 -43 -13 3 -21 3 -18 0 3 -4 15 -8 28 -10 12
-2 26 -8 29 -13 9 -12 112 -14 112 -2 0 5 10 7 23 3 21 -6 21 -5 4 9 -12 9
-14 16 -7 21 5 3 8 11 5 16 -4 5 1 9 10 9 9 0 13 -5 9 -11 -7 -13 15 -31 29
-22 4 2 3 11 -4 19 -9 11 -8 14 2 14 9 1 8 4 -4 11 -26 15 -69 -5 -91 -42 -14
-23 -22 -28 -39 -23 -39 12 -47 25 -47 77 0 68 26 97 86 97 54 0 93 -17 99
-44 18 -93 15 -126 -12 -126 -8 0 -12 -4 -9 -9 3 -5 -17 -18 -45 -30 -52 -23
-74 -22 -117 6 -13 8 -30 12 -37 9 -18 -7 -55 40 -54 68 0 21 1 21 9 1 7 -16
9 -13 9 18 1 20 5 37 11 37 5 0 7 -7 4 -15 -4 -8 -1 -15 5 -15 19 0 13 40 -6
41 -16 1 -15 2 1 6 15 4 16 7 5 14 -11 7 -11 9 4 9 9 0 17 4 17 9 0 5 -8 12
-17 14 -13 3 -12 5 5 6 13 0 20 6 17 11 -3 6 1 10 9 10 9 0 15 6 14 13 -2 6 3
11 11 9 8 -2 17 1 20 6 16 23 101 42 101 22z m1840 -1 c0 -5 5 -7 10 -4 6 3
10 0 10 -7 0 -9 3 -9 10 2 8 13 14 8 12 -11 -1 -4 6 -6 16 -5 10 0 16 -6 16
-16 -1 -10 5 -18 13 -18 8 0 11 -5 8 -10 -3 -6 1 -13 10 -16 13 -5 14 -9 4
-14 -9 -6 -8 -12 4 -25 21 -20 21 -26 2 -19 -8 4 -15 1 -15 -5 0 -6 7 -11 15
-11 8 0 15 -7 15 -15 0 -8 -6 -12 -14 -9 -8 3 -17 1 -21 -5 -3 -7 2 -11 14
-11 28 0 27 -18 -1 -22 -12 -2 -23 -9 -26 -17 -3 -9 2 -11 17 -6 16 5 20 3 15
-8 -3 -8 -17 -17 -32 -20 -15 -3 -44 -10 -64 -15 -29 -7 -45 -6 -76 8 -51 23
-96 82 -48 64 9 -3 13 -11 9 -17 -3 -6 -1 -7 5 -3 7 4 12 15 12 24 0 11 11 4
31 -21 28 -34 35 -37 63 -31 45 9 64 31 72 81 15 99 -38 168 -121 160 -22 -3
-51 -8 -65 -12 -23 -7 -24 -6 -9 9 9 10 31 20 50 23 19 2 36 7 38 9 8 8 21 4
21 -7z m-1450 -44 c11 -13 8 -15 -14 -15 -16 0 -26 5 -26 15 0 8 6 15 14 15 7
0 19 -7 26 -15z m340 -12 c0 -46 -39 -110 -90 -148 -61 -45 -73 -45 -30 0 18
19 37 32 42 29 7 -5 12 10 9 29 -1 5 3 6 9 2 13 -8 40 54 40 90 0 14 5 25 10
25 6 0 10 -12 10 -27z m705 6 c0 -8 -8 -13 -20 -11 -28 5 -32 12 -15 22 19 12
35 7 35 -11z m-1326 -54 c12 -31 21 -67 21 -81 0 -43 -27 -92 -60 -109 -69
-36 -180 -51 -180 -24 0 15 22 22 30 9 6 -9 13 -9 28 -1 11 6 29 11 39 11 25
0 82 56 99 96 23 56 14 124 -20 146 -7 5 -5 8 6 8 11 0 23 -18 37 -55z m1374
23 c-3 -16 -12 -28 -19 -28 -18 0 -18 10 2 38 20 28 24 26 17 -10z m366 11
c74 -26 83 -163 12 -182 -14 -3 -28 6 -51 34 -22 28 -38 39 -58 39 -21 0 -24
-2 -12 -10 12 -8 11 -10 -6 -10 -18 0 -21 7 -22 43 -2 47 12 67 58 86 33 13
41 13 79 0z m-1439 -14 c10 -12 10 -19 2 -27 -13 -13 -42 6 -42 28 0 19 24 18
40 -1z m1000 -5 c0 -24 -26 -38 -42 -22 -8 8 -8 15 2 27 18 21 40 19 40 -5z
m272 -29 c-9 -99 34 -166 119 -185 46 -11 59 -11 74 0 20 15 45 19 45 6 0 -16
-59 -32 -111 -30 -30 2 -56 5 -59 8 -3 3 -14 10 -25 16 -27 15 -73 93 -74 126
-1 23 26 108 34 108 1 0 0 -22 -3 -49z m-251 0 c-7 -13 -8 -22 -1 -26 19 -12
10 -24 -17 -22 -20 1 -28 -3 -31 -17 -3 -15 1 -18 22 -14 15 3 23 1 19 -4 -3
-6 -18 -8 -33 -4 -22 4 -29 1 -33 -14 -3 -12 -14 -20 -26 -20 -12 0 -24 -1
-28 -2 -4 -2 -9 5 -11 14 -2 11 6 22 22 29 26 12 36 39 15 39 -5 0 -7 5 -4 10
3 6 22 10 40 10 26 0 39 6 51 25 19 30 31 27 15 -4z m-1813 -91 l0 -35 -8 30
c-4 17 -8 44 -8 60 0 29 0 29 8 5 4 -14 8 -41 8 -60z m1561 -5 c6 -3 11 -2 11
3 0 5 11 12 24 14 20 4 26 0 31 -20 8 -31 -10 -52 -27 -33 -11 11 -10 12 1 6
10 -6 12 -4 7 4 -5 7 -13 10 -20 8 -6 -3 -29 7 -50 22 -27 18 -40 34 -42 54
-3 28 -2 27 26 -11 16 -22 33 -43 39 -47z m471 -17 c0 -7 7 -26 15 -42 20 -37
14 -42 -22 -20 -38 25 -43 35 -32 56 11 20 39 24 39 6z m-1487 -63 c-18 -24
-87 -46 -136 -44 -19 1 -18 2 5 9 15 4 43 18 62 29 25 16 36 19 42 10 5 -9 10
-5 16 10 4 12 12 19 18 16 6 -4 3 -15 -7 -30z m1657 -64 c0 -15 -21 -25 -29
-14 -3 6 -13 13 -21 16 -8 3 0 6 18 6 17 1 32 -3 32 -8z m236 -94 c-11 -28
-19 -34 -34 -30 -13 3 -19 10 -15 20 3 8 12 12 20 9 8 -3 11 -1 8 4 -3 6 -1
10 5 10 6 0 8 5 5 10 -3 6 -1 10 5 10 6 0 8 6 4 13 -5 9 -4 9 5 1 10 -9 9 -19
-3 -47z m-1133 -27 c13 -25 17 -47 12 -80 -8 -67 -35 -140 -51 -140 -9 0 -14
-11 -14 -30 0 -37 16 -39 25 -3 4 19 9 23 15 14 4 -8 13 -10 19 -6 9 5 11 -9
10 -49 -2 -46 1 -60 19 -76 11 -11 24 -30 28 -42 4 -13 17 -37 30 -54 13 -17
24 -36 24 -42 0 -7 7 -12 15 -12 8 0 15 -6 15 -12 0 -7 15 -20 33 -29 17 -9
31 -21 30 -26 -1 -5 8 -10 19 -10 29 -3 50 -26 42 -46 -5 -15 -9 -15 -33 -3
-14 8 -54 41 -88 74 -33 33 -64 58 -67 55 -3 -4 -13 2 -22 13 -14 17 -15 17
-10 1 8 -26 -10 -12 -27 21 -7 15 -18 36 -24 47 -6 11 -17 35 -23 53 -14 37
-30 42 -30 9 0 -40 -76 -183 -119 -225 -43 -41 -118 -82 -148 -82 -10 1 17 19
59 40 74 38 110 72 137 130 11 22 11 23 -2 8 -8 -10 -24 -18 -37 -18 -18 0
-20 -3 -11 -14 15 -18 -5 -34 -21 -18 -7 7 -19 7 -37 1 -21 -8 -17 -2 19 30
35 31 48 37 59 28 11 -10 13 -8 7 10 -8 27 7 38 24 17 11 -12 15 -12 21 -2 13
20 11 56 -3 60 -10 4 -9 11 2 34 8 16 16 32 18 37 2 4 -1 7 -7 7 -6 0 -11 -7
-11 -15 0 -8 -5 -15 -10 -15 -6 0 -4 13 5 30 9 17 13 34 11 39 -3 5 5 25 18
44 l24 35 -19 62 c-10 34 -19 72 -19 85 0 23 22 84 36 98 16 15 39 1 57 -33z
m1170 -130 c-18 -61 -33 -78 -33 -38 0 26 43 124 48 109 2 -6 -5 -37 -15 -71z
m-2394 -5 c10 -11 23 -42 30 -70 6 -27 23 -74 36 -102 13 -29 22 -53 19 -53
-3 0 -19 30 -36 68 -17 37 -41 90 -54 119 -13 28 -24 60 -23 70 0 14 2 15 6 3
3 -8 13 -24 22 -35z m124 -316 c175 -251 444 -429 767 -510 84 -21 119 -23
295 -24 161 0 216 4 280 19 259 60 463 169 649 346 69 65 80 73 48 35 -113
-138 -325 -279 -520 -349 -145 -52 -261 -69 -452 -69 -151 0 -191 3 -291 25
-239 53 -440 159 -621 326 -56 53 -181 210 -208 262 -18 35 -1 16 53 -61z m62
5 c17 -2 38 -5 48 -7 16 -3 63 -35 137 -93 35 -27 35 -27 -5 16 -38 41 -36 40
32 -15 40 -32 70 -62 67 -66 -2 -4 1 -11 7 -15 8 -5 9 -3 4 6 -5 8 -3 11 6 8
8 -3 13 -10 12 -16 -1 -5 5 -9 15 -8 9 0 16 -4 15 -11 -2 -8 4 -10 14 -6 12 5
14 3 8 -7 -5 -9 -4 -11 3 -6 16 10 54 -12 46 -26 -4 -7 -3 -8 4 -4 6 4 24 0
39 -9 17 -10 20 -14 8 -11 -53 15 23 -25 100 -53 259 -93 607 -98 859 -11 108
37 356 173 342 188 -7 7 24 42 37 42 6 0 2 -10 -9 -23 l-19 -22 22 19 c13 10
20 22 17 27 -3 5 28 30 68 56 55 35 81 46 107 44 23 -1 44 6 69 25 36 28 36
17 -1 -23 -11 -13 -26 -23 -33 -23 -7 0 -57 -44 -111 -98 -210 -211 -478 -334
-789 -363 -377 -35 -730 91 -1008 360 -43 42 -62 55 -50 36 10 -16 26 -35 34
-42 8 -6 11 -15 7 -19 -11 -11 -131 118 -168 181 l-30 50 33 -39 c21 -24 44
-40 63 -42z m1763 -6 c3 -16 -53 -77 -71 -78 -4 0 -24 -18 -44 -41 -20 -22
-57 -52 -81 -66 -39 -23 -57 -27 -131 -27 -100 -1 -130 7 -111 29 17 20 30 19
30 -2 1 -17 1 -17 14 0 16 21 43 22 48 2 3 -13 6 -13 31 0 15 8 34 12 41 9 7
-3 21 3 31 13 39 39 78 63 90 53 14 -12 103 73 111 107 7 27 37 28 42 1z
m-714 -50 c48 -86 131 -163 196 -183 85 -26 199 -31 237 -11 34 17 50 9 30
-17 -16 -21 -142 -62 -253 -83 -235 -42 -531 -22 -693 48 -88 39 -108 79 -25
51 55 -19 143 -13 222 13 74 24 143 89 183 170 41 83 62 85 103 12z m811 32
c-14 -22 -195 -150 -212 -149 -10 0 -13 3 -5 6 6 2 12 11 12 19 0 8 15 21 33
29 17 7 59 34 92 59 56 42 95 60 80 36z m-690 -100 c21 -22 36 -40 32 -40 -10
0 -77 61 -77 71 0 14 3 12 45 -31z m585 -24 c0 -7 -113 -76 -124 -76 -5 0 17
18 50 39 56 37 74 46 74 37z m20 -121 c0 -8 -115 -82 -177 -114 -93 -47 -90
-37 5 14 45 24 101 58 125 74 45 32 47 33 47 26z"/>
<path d="M2325 1968 c-27 -21 -55 -73 -55 -103 0 -9 5 -13 10 -10 6 3 10 1 10
-4 0 -6 -7 -11 -15 -11 -18 0 -19 -16 -4 -59 10 -29 29 -43 29 -21 0 6 -6 10
-12 10 -9 0 -8 3 2 10 10 6 21 3 37 -12 14 -13 40 -23 71 -26 44 -4 53 -1 83
26 31 28 34 35 34 85 0 45 -5 60 -25 82 -54 58 -118 70 -165 33z m142 -44 c37
-28 47 -53 39 -99 -19 -102 -166 -94 -192 10 -8 33 1 66 26 98 17 22 26 25 58
20 20 -3 51 -16 69 -29z"/>
<path d="M267 1714 c-3 -6 -8 -35 -11 -65 l-5 -54 14 55 c14 54 15 85 2 64z"/>
<path d="M1456 1518 c-3 -7 -7 -40 -10 -73 -14 -133 -140 -302 -255 -340 -55
-18 -68 -18 -226 5 -146 20 -270 5 -309 -39 -16 -17 -15 -19 12 -24 47 -9 129
-66 142 -98 7 -16 10 -43 6 -60 l-6 -32 48 45 c56 53 88 72 104 62 6 -4 8 -3
5 3 -8 13 52 38 136 58 51 12 63 12 69 1 4 -7 35 -19 68 -26 71 -15 144 -72
159 -123 l9 -32 1 33 c1 45 -19 81 -69 121 l-43 34 24 14 c23 13 23 14 2 8
-37 -10 -30 36 12 82 71 78 113 187 129 336 6 52 1 76 -8 45z m-554 -424 c21
-4 35 -11 32 -16 -4 -7 8 -8 34 -3 28 4 49 2 69 -8 l28 -15 -30 -13 c-17 -8
-33 -18 -36 -22 -4 -5 -18 -2 -32 8 -38 24 -128 31 -166 12 -40 -20 -41 -2 -3
35 29 28 44 32 104 22z m366 -31 c-3 -31 -34 -42 -65 -25 -15 9 -12 13 18 31
45 27 51 26 47 -6z m-328 -51 c0 -10 -84 -72 -98 -72 -13 0 -35 56 -27 69 7
13 125 15 125 3z"/>
<path d="M1539 1505 c-4 -5 -3 -41 2 -80 13 -122 59 -229 132 -310 44 -49 67
-95 49 -95 -5 0 -17 10 -26 23 -9 12 -14 16 -10 9 4 -9 -11 -32 -39 -60 -39
-40 -77 -102 -62 -102 3 0 27 22 53 49 44 45 101 79 159 96 13 3 51 -1 85 -11
35 -9 73 -17 85 -17 12 1 20 -4 18 -11 -2 -6 19 -26 47 -44 28 -18 45 -25 38
-17 -8 10 -9 15 -1 15 11 0 85 -62 108 -90 15 -18 17 -1 4 33 -11 29 -4 67 13
67 7 0 25 14 42 31 16 17 49 41 74 54 l45 23 -35 14 c-101 42 -222 51 -326 24
-132 -34 -229 -11 -310 75 -77 81 -118 168 -132 279 -4 30 -10 51 -13 45z
m638 -434 c3 -11 14 -23 24 -26 21 -7 25 -35 7 -53 -18 -18 -27 -15 -21 7 2
10 -3 26 -13 36 -15 15 -29 17 -86 12 -62 -5 -68 -4 -68 13 0 16 -3 17 -25 7
-14 -7 -25 -18 -25 -24 0 -17 -22 -17 -38 -1 -22 22 52 45 151 47 81 2 89 0
94 -18z m-77 -73 c0 -24 -25 -34 -58 -22 -37 13 -37 29 0 47 36 18 58 8 58
-25z m60 -33 c0 -27 -9 -32 -27 -14 -14 14 -6 39 13 39 8 0 14 -10 14 -25z"/>
<path d="M1640 1472 c0 -18 37 -89 52 -98 10 -6 10 -5 1 7 -7 8 -21 35 -32 60
-11 24 -21 38 -21 31z"/>
<path d="M812 1171 c-10 -6 -10 -10 3 -21 12 -10 15 -10 15 0 0 10 3 10 15 0
18 -15 30 -7 22 15 -7 16 -34 20 -55 6z"/>
<path d="M2110 1170 c-11 -7 -12 -12 -4 -20 8 -8 14 -8 18 -1 4 5 13 8 21 4 9
-3 15 1 15 11 0 18 -27 21 -50 6z"/>
<path d="M740 1155 c-11 -13 -11 -18 -1 -28 10 -9 12 -8 9 7 -1 10 3 21 11 24
10 3 12 0 8 -12 -5 -11 -3 -16 5 -14 6 2 12 12 14 21 3 22 -29 23 -46 2z"/>
<path d="M2180 1161 c0 -15 23 -26 28 -13 2 7 11 12 19 12 13 0 13 -3 3 -15
-7 -8 -10 -15 -7 -15 3 0 12 -3 21 -6 11 -4 16 0 16 14 0 11 -7 23 -16 26 -24
9 -64 7 -64 -3z"/>
<path d="M592 1087 c13 -14 44 -12 54 4 3 5 -11 9 -31 9 -30 0 -34 -2 -23 -13z"/>
<path d="M2352 1088 c6 -17 36 -18 42 -2 4 10 -2 14 -20 14 -15 0 -24 -5 -22
-12z"/>
<path d="M1617 1039 c3 -11 12 -19 20 -17 20 4 18 21 -5 29 -16 6 -19 4 -15
-12z"/>
<path d="M1077 982 c-23 -3 -26 -6 -16 -18 7 -9 21 -12 38 -8 l26 6 -29 -28
c-29 -27 -74 -45 -61 -24 3 5 14 10 23 11 13 0 11 3 -6 11 -13 7 -21 17 -18
25 8 19 -8 16 -35 -7 l-24 -19 23 -1 c26 0 27 -7 7 -47 -15 -30 -55 -50 -75
-38 -21 13 -31 -8 -11 -22 20 -13 25 -12 60 16 59 47 140 81 193 81 26 0 50
-5 53 -10 4 -6 36 -24 71 -40 61 -27 64 -31 54 -51 -10 -17 -9 -23 1 -30 39
-25 38 6 -2 82 -39 73 -51 83 -121 103 -54 15 -88 14 -88 -5 0 -10 14 -13 44
-9 11 1 17 -3 14 -12 -8 -24 -35 -20 -64 9 -21 21 -36 28 -57 25z m243 -82 c0
-5 -5 -12 -11 -16 -14 -8 -33 11 -25 25 7 11 36 4 36 -9z"/>
<path d="M1763 971 c-29 -9 -63 -25 -75 -36 l-23 -20 28 -3 c22 -3 27 -7 22
-23 -8 -25 2 -24 41 6 40 30 88 32 147 6 74 -32 81 -34 125 -35 47 -2 50 2 23
26 -10 8 -20 21 -23 28 -3 10 -9 11 -24 2 -17 -10 -17 -11 -1 -12 9 0 17 -4
17 -9 0 -20 -22 -22 -48 -5 l-27 18 33 9 c17 6 32 14 32 18 0 14 -34 10 -56
-6 -10 -8 -25 -15 -32 -15 -13 0 -42 23 -42 34 0 11 38 6 42 -6 3 -8 9 -8 23
-1 18 10 18 11 -1 20 -36 19 -127 21 -181 4z m87 -21 c0 -13 -40 -13 -60 0
-11 7 -5 10 23 10 20 0 37 -4 37 -10z"/>
<path d="M493 965 c-61 -26 -66 -129 -11 -227 38 -68 124 -76 183 -18 28 28
30 36 30 98 -1 69 -21 124 -54 149 -22 17 -108 15 -148 -2z m140 -38 c36 -40
35 -53 -2 -16 -41 41 -88 40 -136 -3 l-36 -31 13 34 c11 26 23 36 54 45 51 14
73 8 107 -29z m-17 -28 c41 -45 16 -169 -34 -169 -8 0 -32 17 -53 39 -30 29
-39 47 -39 72 0 68 82 106 126 58z"/>
<path d="M539 853 c-7 -10 -9 -15 -4 -10 5 4 15 -7 23 -25 12 -26 16 -29 19
-15 4 14 8 16 19 6 22 -18 18 24 -4 44 -24 22 -36 21 -53 0z"/>
<path d="M2331 954 c-30 -39 -44 -90 -39 -151 6 -68 44 -112 104 -120 62 -8
103 26 133 111 22 64 23 71 9 115 -17 57 -42 71 -125 71 -54 0 -64 -3 -82 -26z
m166 -9 c26 -18 41 -81 24 -98 -8 -8 -11 -5 -11 12 0 24 -61 91 -83 91 -7 0
-25 -7 -41 -15 -38 -20 -43 -19 -21 5 22 25 100 27 132 5z m-23 -56 c28 -33
28 -46 0 -101 -26 -50 -82 -64 -108 -26 -23 32 -20 100 5 132 29 37 70 35 103
-5z"/>
<path d="M2390 855 c-7 -8 -8 -15 -3 -15 6 0 10 -10 9 -22 -1 -29 21 -34 29
-6 4 13 13 26 19 31 8 5 6 10 -4 17 -21 14 -36 12 -50 -5z"/>
<path d="M925 892 c-9 -10 -5 -23 5 -17 6 3 10 1 10 -5 0 -14 42 -9 47 6 4 11
-52 25 -62 16z"/>
<path d="M1653 887 c-25 -32 -24 -36 8 -27 42 12 45 16 21 29 -15 8 -22 7 -29
-2z"/>
<path d="M1125 875 c-5 -2 -29 -9 -53 -15 -48 -12 -105 -58 -129 -103 -20 -39
-20 -115 0 -154 9 -17 30 -42 47 -57 62 -52 174 -25 248 59 62 70 74 142 36
216 -21 42 -102 71 -149 54z m117 -39 c48 -36 50 -119 6 -177 -46 -60 -54 -59
-50 9 3 50 1 60 -22 81 -53 50 -146 37 -174 -24 -15 -32 -16 -90 -2 -116 16
-29 -5 -24 -29 7 -52 66 3 181 104 218 50 18 144 20 167 2z m-89 -96 c13 -11
28 -31 31 -45 8 -32 -16 -90 -44 -105 -13 -7 -20 -8 -16 -2 4 7 -4 10 -21 9
-23 -2 -31 5 -45 33 -13 26 -18 30 -19 15 0 -20 0 -20 -9 0 -6 14 -9 15 -9 5
-1 -26 28 -59 62 -69 32 -9 32 -9 -12 -10 -24 -1 -41 2 -38 6 4 3 1 13 -7 22
-29 33 -24 105 10 136 33 31 82 33 117 5z"/>
<path d="M1067 693 c-4 -3 -7 -15 -7 -27 0 -15 3 -17 12 -8 19 19 30 14 23 -9
-6 -17 -3 -20 11 -17 23 4 30 34 14 53 -13 16 -42 20 -53 8z"/>
<path d="M1770 863 c-41 -21 -70 -73 -70 -123 0 -40 29 -108 53 -129 21 -17
22 -35 2 -27 -23 8 -18 2 18 -24 30 -22 31 -22 13 -2 -11 12 -15 22 -9 22 12
0 45 -35 38 -41 -2 -3 4 -6 13 -7 9 -1 42 -4 72 -7 66 -7 112 13 148 66 20 29
23 44 20 101 -3 58 -8 71 -33 98 -68 71 -199 107 -265 73z m175 -34 c26 -9 51
-29 73 -59 31 -40 34 -49 30 -96 -4 -49 -24 -84 -47 -84 -6 0 -11 -5 -11 -11
0 -5 -5 -7 -11 -4 -7 5 -5 13 6 25 24 27 30 82 11 118 -21 41 -53 62 -94 62
-72 0 -120 -56 -109 -125 7 -45 -4 -44 -39 3 -39 51 -41 127 -4 167 23 25 29
27 90 22 36 -3 83 -11 105 -18z m16 -98 c59 -60 24 -162 -55 -160 l-31 1 31 9
c95 27 87 159 -10 159 -19 0 -37 -4 -40 -8 -2 -4 11 -6 30 -4 43 5 74 -19 74
-59 0 -34 -9 -59 -22 -59 -5 0 -6 5 -2 12 4 7 3 8 -5 4 -6 -4 -9 -12 -6 -17
11 -16 -25 -22 -53 -9 -15 8 -31 14 -35 14 -14 2 -27 30 -27 59 0 18 11 39 29
58 40 39 82 39 122 0z"/>
<path d="M1871 686 c-15 -18 -3 -46 19 -46 29 0 53 29 39 46 -15 18 -43 18
-58 0z"/>
<path d="M1280 855 c0 -11 44 -44 52 -39 15 10 8 20 -22 31 -16 6 -30 10 -30
8z"/>
<path d="M1668 843 c-26 -7 -22 -23 6 -23 13 0 26 7 30 15 5 15 -3 17 -36 8z"/>
<path d="M1612 810 c-10 -28 -10 -31 7 -25 12 4 21 0 25 -12 4 -10 4 -14 0
-11 -9 10 -46 -11 -39 -22 3 -4 18 -3 34 3 27 10 28 13 19 41 -6 17 -16 37
-23 44 -10 11 -14 8 -23 -18z"/>
<path d="M2030 830 c0 -5 11 -10 24 -10 14 0 28 5 31 10 4 6 -7 10 -24 10 -17
0 -31 -4 -31 -10z"/>
<path d="M875 799 c-8 -12 14 -31 30 -26 6 2 10 10 10 18 0 17 -31 24 -40 8z"/>
<path d="M2077 803 c-14 -13 -6 -23 18 -23 18 0 23 4 19 15 -6 16 -26 20 -37
8z"/>
<path d="M1330 772 c0 -12 23 -32 37 -32 22 0 15 16 -12 28 -14 6 -25 8 -25 4z"/>
<path d="M854 748 c-4 -6 1 -17 11 -25 22 -16 35 -17 35 -3 0 6 -4 10 -10 10
-5 0 -10 4 -10 10 0 5 8 7 18 4 14 -5 15 -4 2 5 -20 14 -37 14 -46 -1z"/>
<path d="M2103 753 c-22 -8 -14 -23 12 -23 16 0 25 6 25 15 0 15 -14 18 -37 8z"/>
<path d="M1353 712 c-27 -4 -40 -32 -14 -32 10 0 24 7 31 15 15 19 12 22 -17
17z"/>
<path d="M1620 700 c6 -11 18 -20 26 -20 22 0 12 22 -14 31 -20 8 -21 6 -12
-11z"/>
<path d="M840 704 c0 -16 23 -44 35 -44 20 0 19 20 -2 36 -19 14 -33 18 -33 8z"/>
<path d="M2114 696 c-10 -8 -16 -17 -12 -21 8 -8 48 13 48 25 0 14 -13 12 -36
-4z"/>
<path d="M2098 603 c-25 -29 -28 -40 -13 -40 9 0 14 7 13 16 -2 9 3 16 11 16
8 0 16 6 19 13 6 18 -13 15 -30 -5z"/>
<path d="M1716 563 c-13 -13 -5 -23 19 -23 19 0 25 -5 23 -17 -2 -13 4 -17 27
-17 23 -1 29 -5 27 -18 -2 -11 3 -18 12 -18 34 0 23 21 -26 53 -76 48 -75 47
-82 40z"/>
<path d="M839 523 c29 -42 36 -46 62 -32 l21 11 -21 21 c-16 17 -23 19 -33 9
-9 -9 -16 -8 -32 6 -18 15 -17 13 3 -15z"/>
<path d="M930 530 c0 -5 7 -10 16 -10 8 0 12 -4 9 -10 -3 -5 1 -10 10 -10 9 0
13 -4 10 -10 -7 -12 -3 -12 19 -4 12 5 8 12 -20 30 -39 27 -44 28 -44 14z"/>
<path d="M1138 493 c-10 -3 -18 -8 -18 -13 0 -13 33 -21 44 -10 13 13 -3 28
-26 23z"/>
<path d="M1863 476 c4 -13 57 -16 57 -3 0 5 7 4 15 -3 8 -6 19 -9 25 -5 24 15
7 23 -45 23 -37 0 -54 -5 -52 -12z"/>
<path d="M1328 2555 c-89 -24 -162 -85 -199 -170 -17 -38 -23 -71 -24 -138 0
-49 3 -91 8 -94 5 -3 3 -9 -4 -13 -9 -6 -10 -12 -2 -22 6 -7 13 -17 14 -23 2
-5 10 -9 19 -8 9 2 10 0 3 -3 -21 -9 -15 -24 9 -24 21 0 21 0 2 -14 -17 -13
-18 -15 -2 -21 9 -4 21 -4 27 -1 5 4 13 2 16 -4 4 -6 1 -9 -6 -8 -6 2 -14 -3
-17 -11 -3 -10 1 -12 18 -8 21 5 21 5 5 -13 -18 -20 -11 -28 23 -25 15 1 19
-2 13 -8 -7 -7 -3 -24 11 -50 l20 -41 14 32 c13 31 11 34 -40 109 -83 121 -99
158 -104 244 -5 93 14 144 82 217 70 75 156 111 116 49 -55 -86 -59 -122 -20
-197 36 -70 124 -130 189 -130 62 1 158 66 190 129 35 68 31 116 -15 176 -19
26 -33 50 -29 53 11 12 96 -41 132 -82 56 -66 83 -128 84 -195 1 -81 -23 -148
-92 -251 -62 -93 -68 -107 -45 -116 8 -3 12 -12 9 -20 -3 -8 -1 -14 5 -14 11
0 22 33 22 69 0 17 4 22 16 17 11 -4 15 -2 11 8 -4 10 -1 13 7 10 21 -8 28 12
14 36 -9 15 -10 23 -2 28 6 4 14 14 17 22 4 12 6 11 6 -2 1 -10 5 -18 10 -18
16 0 24 21 12 33 -6 6 -11 16 -11 21 0 6 5 5 12 -2 17 -17 25 -15 31 8 3 12
-1 24 -11 31 -15 10 -15 10 1 5 15 -5 17 4 17 87 0 136 -18 189 -90 259 -47
46 -70 60 -125 77 -37 12 -79 21 -94 21 -25 -1 -25 -1 7 -15 46 -20 40 -26
-10 -10 -61 19 -194 24 -250 10z m102 -20 c0 -2 -13 -11 -29 -19 -38 -20 -63
-61 -65 -105 -1 -42 32 -134 45 -126 5 4 6 -2 2 -11 -5 -15 -10 -13 -34 14
-52 58 -57 133 -14 199 19 28 95 67 95 48z m179 -15 c58 -29 84 -78 79 -145
-3 -34 -12 -62 -23 -75 -28 -31 -35 -24 -20 21 29 81 10 152 -51 190 -32 19
-41 29 -29 29 3 0 23 -9 44 -20z m-53 -21 c23 -11 54 -35 69 -54 24 -32 25
-38 15 -75 -6 -23 -28 -60 -48 -83 -33 -39 -34 -40 -4 -13 37 34 43 21 8 -17
-44 -48 -143 -48 -187 0 -13 14 -17 22 -9 18 11 -6 11 -3 -2 11 -24 28 -48 88
-48 123 0 20 10 40 32 61 54 55 104 63 174 29z"/>
<path d="M2027 2303 c-12 -11 -8 -53 5 -50 6 1 14 -9 17 -22 4 -14 12 -26 19
-29 15 -5 16 14 1 24 -6 3 -8 17 -5 29 5 19 3 22 -14 18 -11 -3 -20 0 -20 6 0
6 5 11 10 11 6 0 10 5 10 10 0 11 -13 13 -23 3z"/>
<path d="M2071 2191 c-10 -7 -11 -13 -2 -27 10 -18 10 -18 11 -1 0 10 5 15 10
12 6 -3 10 1 10 9 0 18 -8 20 -29 7z"/>
<path d="M2017 2123 c-16 -15 -6 -34 15 -31 29 4 38 38 10 38 -10 0 -22 -3
-25 -7z"/>
<path d="M2040 1811 c4 -16 4 -47 0 -68 -17 -75 -27 -153 -19 -153 4 0 11 -9
14 -21 7 -19 7 -20 21 -2 16 22 18 43 3 43 -6 0 -9 -7 -6 -15 4 -8 1 -17 -6
-21 -7 -4 -9 -4 -5 1 4 4 3 16 -3 26 -5 11 -6 19 -2 18 4 -1 15 -1 23 1 11 1
9 4 -5 10 -17 7 -17 9 -2 9 9 1 17 8 17 16 0 9 -6 12 -17 9 -17 -5 -17 -5 0 6
10 6 17 23 17 41 0 38 -20 118 -31 124 -4 3 -4 -8 1 -24z"/>
<path d="M934 2119 c-3 -6 0 -17 7 -25 18 -17 44 -2 36 20 -7 18 -33 21 -43 5z"/>
<path d="M1550 623 c0 -11 7 -28 15 -39 14 -18 14 -18 15 4 0 13 -7 30 -15 38
-13 14 -15 13 -15 -3z"/>
<path d="M666 461 c-5 -8 17 -31 60 -61 11 -8 3 1 -18 22 -25 24 -34 38 -26
41 9 4 9 6 1 6 -6 1 -14 -3 -17 -8z"/>
<path d="M1953 267 c-17 -7 -35 -16 -40 -21 -9 -10 27 0 72 19 37 17 11 18
-32 2z"/>
<path d="M1306 188 c3 -4 11 -5 19 -1 9 3 21 0 28 -6 15 -12 300 -6 323 7 7 4
-74 7 -181 7 -106 0 -191 -3 -189 -7z"/>
</g>
</svg>
